Coordinates
version=1
nRows=14
nColumns=24
inDegrees=yes

Units are S.I. units (second, meters, Newtons, ...)
Angles are in degrees.

endheader
time	pelvis_tilt	pelvis_list	pelvis_rotation	pelvis_tx	pelvis_ty	pelvis_tz	hip_flexion_r	hip_adduction_r	hip_rotation_r	knee_angle_r	ankle_angle_r	subtalar_angle_r	mtp_angle_r	hip_flexion_l	hip_adduction_l	hip_rotation_l	knee_angle_l	ankle_angle_l	subtalar_angle_l	mtp_angle_l	lumbar_extension	lumbar_bending	lumbar_rotation
      4.48500000	     14.48770781	     -2.98128389	     13.37854607	     -0.09347732	      0.75337500	     -0.30663255	     -2.17453037	      7.83005303	     -3.35300011	    -18.08265871	     23.65266085	      5.03341514	      0.00000000	     13.57615385	      0.50428670	      9.60715686	    -74.37381382	     13.88157890	      3.19225783	      0.00000000	    -36.22257451	     13.12709129	     -6.87690380
      4.49000000	     14.55570667	     -3.06452426	     12.92991500	     -0.08748447	      0.75388872	     -0.30642569	     -2.92797491	      7.96320812	     -3.10497942	    -17.71436389	     23.98757836	      5.55357672	      0.00000000	     14.29142377	      0.51583949	      9.24294683	    -73.60798249	     14.64201906	      2.96400694	      0.00000000	    -36.47463014	     12.99374834	     -6.36952116
      4.49500000	     14.61318684	     -3.15646038	     12.46253255	     -0.08147123	      0.75433160	     -0.30620290	     -3.66185556	      8.08465037	     -2.90113011	    -17.36554278	     24.33486561	      6.10946995	      0.00000000	     14.98353369	      0.48558207	      8.84346771	    -72.74297221	     15.26675317	      2.63868353	      0.00000000	    -36.71312122	     12.84930739	     -5.82796359
      4.50000000	     14.66127973	     -3.23702144	     11.96908935	     -0.07542525	      0.75472509	     -0.30598821	     -4.39083074	      8.17177669	     -2.71643091	    -17.02440975	     24.69714401	      6.71806676	      0.00000000	     15.63537496	      0.43961595	      8.40741893	    -71.76722076	     15.76384189	      2.23717852	      0.00000000	    -36.94082047	     12.68261855	     -5.28054681
      4.50500000	     14.70321153	     -3.32882732	     11.45802110	     -0.06934147	      0.75505353	     -0.30572949	     -5.10936880	      8.25722515	     -2.55356446	    -16.69572877	     25.06388012	      7.35444520	      0.00000000	     16.25281189	      0.34327686	      7.94093879	    -70.69135351	     16.15565912	      1.76662250	      0.00000000	    -37.15513666	     12.50046876	     -4.70924487
      4.51000000	     14.72723466	     -3.48673549	     10.94888133	     -0.06325655	      0.75527648	     -0.30550290	     -5.79591072	      8.39803789	     -2.40253661	    -16.36638340	     25.38746056	      7.92395045	      0.00000000	     16.87488638	      0.16006131	      7.48253560	    -69.54793188	     16.47551758	      1.24760928	      0.00000000	    -37.34552345	     12.39060502	     -4.08244983
      4.51500000	     14.76294073	     -3.50087399	     10.37210099	     -0.05710074	      0.75555407	     -0.30526604	     -6.53433006	      8.35789985	     -2.22839416	    -16.04738253	     25.81458105	      8.68963605	      0.00000000	     17.36263182	      0.09879475	      6.94505406	    -68.22528851	     16.63305310	      0.68916712	      0.00000000	    -37.55629132	     12.10357975	     -3.49511672
      4.52000000	     14.78388249	     -3.59597873	      9.81822704	     -0.05092864	      0.75571615	     -0.30503927	     -7.24168042	      8.39768290	     -2.07832691	    -15.72725457	     26.18787989	      9.37442559	      0.00000000	     17.85573036	     -0.06680833	      6.43672834	    -66.84351761	     16.75474436	      0.10887352	      0.00000000	    -37.73703827	     11.90217553	     -2.86161449
      4.52500000	     14.79826047	     -3.69035574	      9.25148658	     -0.04472992	      0.75582417	     -0.30482023	     -7.94597575	      8.42255456	     -1.91738197	    -15.40835813	     26.56402197	     10.04788755	      0.00000000	     18.30251977	     -0.25037449	      5.91713828	    -65.35644009	     16.81733563	     -0.48091375	      0.00000000	    -37.90735890	     11.69082431	     -2.22340657
      4.53000000	     14.79997098	     -3.79492009	      8.67316040	     -0.03850824	      0.75587094	     -0.30459881	     -8.63820573	      8.44779723	     -1.72048035	    -15.09264399	     26.92730430	     10.68225844	      0.00000000	     18.71514885	     -0.45777515	      5.40575310	    -63.77704424	     16.81104665	     -1.03985490	      0.00000000	    -38.06012550	     11.47778398	     -1.54731525
      4.53500000	     14.80027295	     -3.88429795	      8.09376081	     -0.03223409	      0.75587130	     -0.30438481	     -9.33658983	      8.44711427	     -1.52191994	    -14.78156053	     27.30518316	     11.31063361	      0.00000000	     19.06809895	     -0.66845591	      4.88085043	    -62.08933490	     16.77712323	     -1.56918058	      0.00000000	    -38.19750568	     11.24693885	     -0.90052451
      4.54000000	     14.79641320	     -3.97100732	      7.51208625	     -0.02592563	      0.75582077	     -0.30418563	    -10.03412215	      8.43216010	     -1.31752293	    -14.47430549	     27.68520946	     11.91957733	      0.00000000	     19.36988802	     -0.88599211	      4.36383516	    -60.30458165	     16.71965747	     -2.03606623	      0.00000000	    -38.32205623	     11.01279595	     -0.26545200
      4.54500000	     14.77731641	     -4.09625248	      6.93117917	     -0.01958559	      0.75568858	     -0.30398312	    -10.70913862	      8.44967212	     -1.10035191	    -14.17636630	     28.02221338	     12.46992804	      0.00000000	     19.64757628	     -1.15667165	      3.85602496	    -58.44300262	     16.66770356	     -2.42576268	      0.00000000	    -38.41814554	     10.80961754	      0.39636237
      4.55000000	     14.75081625	     -4.17523880	      6.34379080	     -0.01319806	      0.75552439	     -0.30381887	    -11.38736048	      8.40407955	     -0.85678240	    -13.88289091	     28.39716320	     13.00422156	      0.00000000	     19.85732198	     -1.37862484	      3.35424230	    -56.46693649	     16.59383680	     -2.68545508	      0.00000000	    -38.49806629	     10.56739760	      1.02411609
